<svg width="82" height="15" viewBox="0 0 82 15" fill="none" xmlns="http://www.w3.org/2000/svg">
<path d="M23.7369 6.94346C23.7369 7.40283 23.7086 7.88869 23.652 8.40106H11.2623C11.3566 9.83216 11.8752 10.9541 12.8181 11.7668C13.7798 12.5618 14.9396 12.9594 16.2974 12.9594C17.41 12.9594 18.334 12.7208 19.0695 12.2438C19.8238 11.7491 20.3518 11.0954 20.6536 10.2827H23.4257C23.0108 11.6784 22.1811 12.818 20.9364 13.7014C19.6918 14.5671 18.1455 15 16.2974 15C14.8264 15 13.5064 14.6908 12.3372 14.0724C11.1869 13.4541 10.2817 12.5795 9.62164 11.4488C8.96161 10.3004 8.63159 8.97527 8.63159 7.4735C8.63159 5.97173 8.95218 4.65548 9.59335 3.52474C10.2345 2.39399 11.1303 1.52827 12.2806 0.927563C13.4498 0.309188 14.7887 0 16.2974 0C17.7683 0 19.0695 0.300354 20.201 0.901061C21.3325 1.50177 22.1999 2.33216 22.8034 3.39223C23.4257 4.43463 23.7369 5.61838 23.7369 6.94346ZM21.0779 6.43993C21.0779 5.5212 20.861 4.73498 20.4273 4.08127C19.9935 3.40989 19.3995 2.90636 18.6452 2.57067C17.9097 2.21732 17.0894 2.04064 16.1842 2.04064C14.883 2.04064 13.7704 2.42933 12.8464 3.20671C11.9412 3.9841 11.4226 5.06184 11.2906 6.43993H21.0779Z" fill="#F4F4F4"/>
<path d="M66.8947 6.94346C66.8947 7.40283 66.923 7.88869 66.9796 8.40106H79.3693C79.275 9.83216 78.7564 10.9541 77.8135 11.7668C76.8518 12.5618 75.692 12.9594 74.3342 12.9594C73.2216 12.9594 72.2976 12.7208 71.5621 12.2438C70.8078 11.7491 70.2797 11.0954 69.978 10.2827H67.2059C67.6208 11.6784 68.4505 12.818 69.6952 13.7014C70.9398 14.5671 72.4861 15 74.3342 15C75.8051 15 77.1252 14.6908 78.2944 14.0724C79.4447 13.4541 80.3499 12.5795 81.01 11.4488C81.67 10.3004 82 8.97527 82 7.4735C82 5.97173 81.6794 4.65548 81.0382 3.52474C80.3971 2.39399 79.5013 1.52827 78.351 0.927563C77.1818 0.309188 75.8429 0 74.3342 0C72.8633 0 71.5621 0.300354 70.4306 0.901061C69.2991 1.50177 68.4317 2.33216 67.8282 3.39223C67.2059 4.43463 66.8947 5.61838 66.8947 6.94346ZM69.5537 6.43993C69.5537 5.5212 69.7706 4.73498 70.2043 4.08127C70.6381 3.40989 71.2321 2.90636 71.9864 2.57067C72.7219 2.21732 73.5422 2.04064 74.4474 2.04064C75.7486 2.04064 76.8612 2.42933 77.7852 3.20671C78.6904 3.9841 79.209 5.06184 79.341 6.43993H69.5537Z" fill="#F4F4F4"/>
<path d="M58.6296 15C57.3471 15 56.1969 14.8145 55.179 14.4435C54.1611 14.0548 53.357 13.5247 52.7666 12.8534C52.1763 12.1643 51.8505 11.3781 51.7895 10.4947H54.6599C54.7413 11.2191 55.1281 11.811 55.8203 12.2703C56.5328 12.7297 57.459 12.9594 58.5991 12.9594C59.6576 12.9594 60.4923 12.7562 61.103 12.3498C61.7138 11.9435 62.0191 11.4311 62.0191 10.8127C62.0191 10.1767 61.6934 9.70848 61.042 9.40813C60.3905 9.09011 59.3828 8.78092 58.0189 8.48057C56.7771 8.19788 55.7592 7.91519 54.9652 7.63251C54.1917 7.33216 53.5199 6.89929 52.9499 6.33392C52.4002 5.75088 52.1254 4.99117 52.1254 4.05477C52.1254 3.31272 52.3798 2.63251 52.8888 2.01414C53.3977 1.39576 54.1204 0.909895 55.0569 0.556538C55.9933 0.185513 57.0621 0 58.2632 0C60.1157 0 61.612 0.406361 62.752 1.21908C63.892 2.0318 64.5027 3.14488 64.5842 4.5583H61.8054C61.7443 3.79859 61.388 3.18905 60.7366 2.72968C60.1055 2.27032 59.2505 2.04064 58.1715 2.04064C57.174 2.04064 56.3801 2.22615 55.7897 2.59717C55.1994 2.9682 54.9042 3.45406 54.9042 4.05477C54.9042 4.5318 55.0772 4.92933 55.4233 5.24735C55.7897 5.5477 56.2376 5.79505 56.7669 5.9894C57.3165 6.16608 58.0698 6.36926 59.0266 6.59894C60.2277 6.88163 61.2048 7.16431 61.958 7.447C62.7113 7.71201 63.3525 8.11837 63.8818 8.66608C64.4315 9.21378 64.7165 9.92933 64.7368 10.8127C64.7368 11.6078 64.4824 12.3233 63.9734 12.9594C63.4645 13.5954 62.7418 14.0989 61.8054 14.47C60.8893 14.8233 59.8307 15 58.6296 15Z" fill="#F4F4F4"/>
<path d="M2.93087 2.66129C3.44619 1.819 4.17622 1.16488 5.12097 0.698925C6.08719 0.232976 7.2574 0 8.63158 0V2.52688H7.8586C4.57345 2.52688 2.93087 4.01434 2.93087 6.98925V15H0V0.268818H2.93087V2.66129Z" fill="#F4F4F4"/>
<path d="M43.9309 2.66129C44.4462 1.819 45.1762 1.16488 46.121 0.698925C47.0872 0.232976 48.2574 0 49.6316 0V2.52688H48.8586C45.5734 2.52688 43.9309 4.01434 43.9309 6.98925V15H41V0.268818H43.9309V2.66129Z" fill="#F4F4F4"/>
<path d="M31.3177 12.7007L36.1085 0H38.8421L32.7831 15H29.7959L23.7368 0H26.4986L31.3177 12.7007Z" fill="#F4F4F4"/>
</svg>
